<svg width="100" height="100" viewBox="0 0 100 100" xmlns="http://www.w3.org/2000/svg" xmlns:xlink="http://www.w3.org/1999/xlink"><defs><circle id="a" cx="41.5" cy="41.5" r="41.5"/></defs><g fill="none" fill-rule="evenodd"><circle cx="50" cy="50" r="50" fill="#4D7AFF" fill-rule="nonzero"/><circle cx="41.5" cy="41.5" r="41.5" transform="translate(9 9)" fill="#4D7AFF" fill-rule="nonzero"/><g transform="translate(9 9)"><mask id="b" fill="#fff"><use xlink:href="#a"/></mask><path d="M54.922 64.558l.88 9.615H26.198l.88-9.615h27.844zm-41.766 0l-1.76 9.615h6.343l1.384-9.615h-5.967zm39.565-24.039l.792 8.654H28.487l.792-8.654h23.442zm-35.163 0l-1.585 8.654h5.363l1.245-8.654h-5.023zM50.74 18.885l.705 7.692h-20.89l.705-7.692h19.48zm-29.22 0l-1.41 7.692h4.477l1.107-7.692h-4.175.001zM48.98-.346l.616 6.73H32.404l.616-6.73h15.96zm-23.94 0l-1.232 6.73h3.684l.968-6.73h-3.42zm43.804 64.904l1.76 9.615h-6.343l-1.384-9.615h5.967zm-4.402-24.039l1.585 8.654h-5.363l-1.245-8.654h5.023zm-3.961-21.634l1.408 7.692h-4.476l-1.107-7.692h4.175zM56.96-.346l1.232 6.73h-3.684l-.968-6.73h3.42zm-6.993-18.602L65.033 96.25h-4.806L48.173-18.948h1.794zm-16.14 0L21.773 96.25h-4.806L32.033-18.948h1.794z" fill="#FFF" fill-rule="nonzero" mask="url(#b)"/></g></g></svg>